<svg xmlns="http://www.w3.org/2000/svg" width="1120" height="650" viewBox="0 0 1120 650" role="img" aria-label="GPT-2 mesh traffic and stalls">
<style>text{font-family:Inter,ui-sans-serif,system-ui,sans-serif;fill:#0f172a}.title{font-size:22px;font-weight:700}.subtitle{font-size:13px;fill:#475569}.axis{font-size:11px;fill:#475569}.label{font-size:12px;font-weight:600}.value{font-size:11px;font-weight:600}</style>
<rect width="100%" height="100%" fill="white"/>
<text x="40.00" y="35.00" class="title" text-anchor="start">Traffic is spatially uneven; congestion is a placement property</text>
<text x="40.00" y="57.00" class="subtitle" text-anchor="start">GPT-2 doorbell trace on the physical 8×8 XY-routed mesh</text>
<text x="80.00" y="107.00" class="label" text-anchor="start">Directional word-hops sourced per tile</text>
<rect x="80.00" y="125.00" width="48.00" height="48.00" rx="2" fill="#97a9dd" stroke="none" stroke-width="0"/>
<text x="105.00" y="148.00" class="value" text-anchor="middle" fill="#0f172a">0</text>
<text x="105.00" y="162.00" class="axis" text-anchor="middle" fill="#0f172a">0.0</text>
<rect x="130.00" y="125.00" width="48.00" height="48.00" rx="2" fill="#1e40af" stroke="none" stroke-width="0"/>
<text x="155.00" y="148.00" class="value" text-anchor="middle" fill="white">1</text>
<text x="155.00" y="162.00" class="axis" text-anchor="middle" fill="white">0.0</text>
<rect x="180.00" y="125.00" width="48.00" height="48.00" rx="2" fill="#637cca" stroke="none" stroke-width="0"/>
<text x="205.00" y="148.00" class="value" text-anchor="middle" fill="white">2</text>
<text x="205.00" y="162.00" class="axis" text-anchor="middle" fill="white">0.0</text>
<rect x="230.00" y="125.00" width="48.00" height="48.00" rx="2" fill="#7b91d2" stroke="none" stroke-width="0"/>
<text x="255.00" y="148.00" class="value" text-anchor="middle" fill="#0f172a">3</text>
<text x="255.00" y="162.00" class="axis" text-anchor="middle" fill="#0f172a">0.0</text>
<rect x="280.00" y="125.00" width="48.00" height="48.00" rx="2" fill="#8398d6" stroke="none" stroke-width="0"/>
<text x="305.00" y="148.00" class="value" text-anchor="middle" fill="#0f172a">4</text>
<text x="305.00" y="162.00" class="axis" text-anchor="middle" fill="#0f172a">0.0</text>
<rect x="330.00" y="125.00" width="48.00" height="48.00" rx="2" fill="#97a9dd" stroke="none" stroke-width="0"/>
<text x="355.00" y="148.00" class="value" text-anchor="middle" fill="#0f172a">5</text>
<text x="355.00" y="162.00" class="axis" text-anchor="middle" fill="#0f172a">0.0</text>
<rect x="380.00" y="125.00" width="48.00" height="48.00" rx="2" fill="#3c5aba" stroke="none" stroke-width="0"/>
<text x="405.00" y="148.00" class="value" text-anchor="middle" fill="white">6</text>
<text x="405.00" y="162.00" class="axis" text-anchor="middle" fill="white">0.0</text>
<rect x="430.00" y="125.00" width="48.00" height="48.00" rx="2" fill="#637cca" stroke="none" stroke-width="0"/>
<text x="455.00" y="148.00" class="value" text-anchor="middle" fill="white">7</text>
<text x="455.00" y="162.00" class="axis" text-anchor="middle" fill="white">0.0</text>
<rect x="80.00" y="175.00" width="48.00" height="48.00" rx="2" fill="#97a9dd" stroke="none" stroke-width="0"/>
<text x="105.00" y="198.00" class="value" text-anchor="middle" fill="#0f172a">8</text>
<text x="105.00" y="212.00" class="axis" text-anchor="middle" fill="#0f172a">0.0</text>
<rect x="130.00" y="175.00" width="48.00" height="48.00" rx="2" fill="#8398d6" stroke="none" stroke-width="0"/>
<text x="155.00" y="198.00" class="value" text-anchor="middle" fill="#0f172a">9</text>
<text x="155.00" y="212.00" class="axis" text-anchor="middle" fill="#0f172a">0.0</text>
<rect x="180.00" y="175.00" width="48.00" height="48.00" rx="2" fill="#7b91d2" stroke="none" stroke-width="0"/>
<text x="205.00" y="198.00" class="value" text-anchor="middle" fill="#0f172a">10</text>
<text x="205.00" y="212.00" class="axis" text-anchor="middle" fill="#0f172a">0.0</text>
<rect x="230.00" y="175.00" width="48.00" height="48.00" rx="2" fill="#637cca" stroke="none" stroke-width="0"/>
<text x="255.00" y="198.00" class="value" text-anchor="middle" fill="white">11</text>
<text x="255.00" y="212.00" class="axis" text-anchor="middle" fill="white">0.0</text>
<rect x="280.00" y="175.00" width="48.00" height="48.00" rx="2" fill="#1e40af" stroke="none" stroke-width="0"/>
<text x="305.00" y="198.00" class="value" text-anchor="middle" fill="white">12</text>
<text x="305.00" y="212.00" class="axis" text-anchor="middle" fill="white">0.0</text>
<rect x="330.00" y="175.00" width="48.00" height="48.00" rx="2" fill="#97a9dd" stroke="none" stroke-width="0"/>
<text x="355.00" y="198.00" class="value" text-anchor="middle" fill="#0f172a">13</text>
<text x="355.00" y="212.00" class="axis" text-anchor="middle" fill="#0f172a">0.0</text>
<rect x="380.00" y="175.00" width="48.00" height="48.00" rx="2" fill="#8398d6" stroke="none" stroke-width="0"/>
<text x="405.00" y="198.00" class="value" text-anchor="middle" fill="#0f172a">14</text>
<text x="405.00" y="212.00" class="axis" text-anchor="middle" fill="#0f172a">0.0</text>
<rect x="430.00" y="175.00" width="48.00" height="48.00" rx="2" fill="#7b91d2" stroke="none" stroke-width="0"/>
<text x="455.00" y="198.00" class="value" text-anchor="middle" fill="#0f172a">15</text>
<text x="455.00" y="212.00" class="axis" text-anchor="middle" fill="#0f172a">0.0</text>
<rect x="80.00" y="225.00" width="48.00" height="48.00" rx="2" fill="#1e40af" stroke="none" stroke-width="0"/>
<text x="105.00" y="248.00" class="value" text-anchor="middle" fill="white">16</text>
<text x="105.00" y="262.00" class="axis" text-anchor="middle" fill="white">0.0</text>
<rect x="130.00" y="225.00" width="48.00" height="48.00" rx="2" fill="#637cca" stroke="none" stroke-width="0"/>
<text x="155.00" y="248.00" class="value" text-anchor="middle" fill="white">17</text>
<text x="155.00" y="262.00" class="axis" text-anchor="middle" fill="white">0.0</text>
<rect x="180.00" y="225.00" width="48.00" height="48.00" rx="2" fill="#7b91d2" stroke="none" stroke-width="0"/>
<text x="205.00" y="248.00" class="value" text-anchor="middle" fill="#0f172a">18</text>
<text x="205.00" y="262.00" class="axis" text-anchor="middle" fill="#0f172a">0.0</text>
<rect x="230.00" y="225.00" width="48.00" height="48.00" rx="2" fill="#8398d6" stroke="none" stroke-width="0"/>
<text x="255.00" y="248.00" class="value" text-anchor="middle" fill="#0f172a">19</text>
<text x="255.00" y="262.00" class="axis" text-anchor="middle" fill="#0f172a">0.0</text>
<rect x="280.00" y="225.00" width="48.00" height="48.00" rx="2" fill="#97a9dd" stroke="none" stroke-width="0"/>
<text x="305.00" y="248.00" class="value" text-anchor="middle" fill="#0f172a">20</text>
<text x="305.00" y="262.00" class="axis" text-anchor="middle" fill="#0f172a">0.0</text>
<rect x="330.00" y="225.00" width="48.00" height="48.00" rx="2" fill="#4d69c1" stroke="none" stroke-width="0"/>
<text x="355.00" y="248.00" class="value" text-anchor="middle" fill="white">21</text>
<text x="355.00" y="262.00" class="axis" text-anchor="middle" fill="white">0.0</text>
<rect x="380.00" y="225.00" width="48.00" height="48.00" rx="2" fill="#637cca" stroke="none" stroke-width="0"/>
<text x="405.00" y="248.00" class="value" text-anchor="middle" fill="white">22</text>
<text x="405.00" y="262.00" class="axis" text-anchor="middle" fill="white">0.0</text>
<rect x="430.00" y="225.00" width="48.00" height="48.00" rx="2" fill="#7b91d2" stroke="none" stroke-width="0"/>
<text x="455.00" y="248.00" class="value" text-anchor="middle" fill="#0f172a">23</text>
<text x="455.00" y="262.00" class="axis" text-anchor="middle" fill="#0f172a">0.0</text>
<rect x="80.00" y="275.00" width="48.00" height="48.00" rx="2" fill="#1e40af" stroke="none" stroke-width="0"/>
<text x="105.00" y="298.00" class="value" text-anchor="middle" fill="white">24</text>
<text x="105.00" y="312.00" class="axis" text-anchor="middle" fill="white">0.0</text>
<rect x="130.00" y="275.00" width="48.00" height="48.00" rx="2" fill="#97a9dd" stroke="none" stroke-width="0"/>
<text x="155.00" y="298.00" class="value" text-anchor="middle" fill="#0f172a">25</text>
<text x="155.00" y="312.00" class="axis" text-anchor="middle" fill="#0f172a">0.0</text>
<rect x="180.00" y="275.00" width="48.00" height="48.00" rx="2" fill="#8398d6" stroke="none" stroke-width="0"/>
<text x="205.00" y="298.00" class="value" text-anchor="middle" fill="#0f172a">26</text>
<text x="205.00" y="312.00" class="axis" text-anchor="middle" fill="#0f172a">0.0</text>
<rect x="230.00" y="275.00" width="48.00" height="48.00" rx="2" fill="#7b91d2" stroke="none" stroke-width="0"/>
<text x="255.00" y="298.00" class="value" text-anchor="middle" fill="#0f172a">27</text>
<text x="255.00" y="312.00" class="axis" text-anchor="middle" fill="#0f172a">0.0</text>
<rect x="280.00" y="275.00" width="48.00" height="48.00" rx="2" fill="#637cca" stroke="none" stroke-width="0"/>
<text x="305.00" y="298.00" class="value" text-anchor="middle" fill="white">28</text>
<text x="305.00" y="312.00" class="axis" text-anchor="middle" fill="white">0.0</text>
<rect x="330.00" y="275.00" width="48.00" height="48.00" rx="2" fill="#1e40af" stroke="none" stroke-width="0"/>
<text x="355.00" y="298.00" class="value" text-anchor="middle" fill="white">29</text>
<text x="355.00" y="312.00" class="axis" text-anchor="middle" fill="white">0.0</text>
<rect x="380.00" y="275.00" width="48.00" height="48.00" rx="2" fill="#97a9dd" stroke="none" stroke-width="0"/>
<text x="405.00" y="298.00" class="value" text-anchor="middle" fill="#0f172a">30</text>
<text x="405.00" y="312.00" class="axis" text-anchor="middle" fill="#0f172a">0.0</text>
<rect x="430.00" y="275.00" width="48.00" height="48.00" rx="2" fill="#8398d6" stroke="none" stroke-width="0"/>
<text x="455.00" y="298.00" class="value" text-anchor="middle" fill="#0f172a">31</text>
<text x="455.00" y="312.00" class="axis" text-anchor="middle" fill="#0f172a">0.0</text>
<rect x="80.00" y="325.00" width="48.00" height="48.00" rx="2" fill="#637cca" stroke="none" stroke-width="0"/>
<text x="105.00" y="348.00" class="value" text-anchor="middle" fill="white">32</text>
<text x="105.00" y="362.00" class="axis" text-anchor="middle" fill="white">0.0</text>
<rect x="130.00" y="325.00" width="48.00" height="48.00" rx="2" fill="#7b91d2" stroke="none" stroke-width="0"/>
<text x="155.00" y="348.00" class="value" text-anchor="middle" fill="#0f172a">33</text>
<text x="155.00" y="362.00" class="axis" text-anchor="middle" fill="#0f172a">0.0</text>
<rect x="180.00" y="325.00" width="48.00" height="48.00" rx="2" fill="#8398d6" stroke="none" stroke-width="0"/>
<text x="205.00" y="348.00" class="value" text-anchor="middle" fill="#0f172a">34</text>
<text x="205.00" y="362.00" class="axis" text-anchor="middle" fill="#0f172a">0.0</text>
<rect x="230.00" y="325.00" width="48.00" height="48.00" rx="2" fill="#97a9dd" stroke="none" stroke-width="0"/>
<text x="255.00" y="348.00" class="value" text-anchor="middle" fill="#0f172a">35</text>
<text x="255.00" y="362.00" class="axis" text-anchor="middle" fill="#0f172a">0.0</text>
<rect x="280.00" y="325.00" width="48.00" height="48.00" rx="2" fill="#2c4db5" stroke="none" stroke-width="0"/>
<text x="305.00" y="348.00" class="value" text-anchor="middle" fill="white">36</text>
<text x="305.00" y="362.00" class="axis" text-anchor="middle" fill="white">0.0</text>
<rect x="330.00" y="325.00" width="48.00" height="48.00" rx="2" fill="#637cca" stroke="none" stroke-width="0"/>
<text x="355.00" y="348.00" class="value" text-anchor="middle" fill="white">37</text>
<text x="355.00" y="362.00" class="axis" text-anchor="middle" fill="white">0.0</text>
<rect x="380.00" y="325.00" width="48.00" height="48.00" rx="2" fill="#7b91d2" stroke="none" stroke-width="0"/>
<text x="405.00" y="348.00" class="value" text-anchor="middle" fill="#0f172a">38</text>
<text x="405.00" y="362.00" class="axis" text-anchor="middle" fill="#0f172a">0.0</text>
<rect x="430.00" y="325.00" width="48.00" height="48.00" rx="2" fill="#8398d6" stroke="none" stroke-width="0"/>
<text x="455.00" y="348.00" class="value" text-anchor="middle" fill="#0f172a">39</text>
<text x="455.00" y="362.00" class="axis" text-anchor="middle" fill="#0f172a">0.0</text>
<rect x="80.00" y="375.00" width="48.00" height="48.00" rx="2" fill="#637cca" stroke="none" stroke-width="0"/>
<text x="105.00" y="398.00" class="value" text-anchor="middle" fill="white">40</text>
<text x="105.00" y="412.00" class="axis" text-anchor="middle" fill="white">0.0</text>
<rect x="130.00" y="375.00" width="48.00" height="48.00" rx="2" fill="#3c5aba" stroke="none" stroke-width="0"/>
<text x="155.00" y="398.00" class="value" text-anchor="middle" fill="white">41</text>
<text x="155.00" y="412.00" class="axis" text-anchor="middle" fill="white">0.0</text>
<rect x="180.00" y="375.00" width="48.00" height="48.00" rx="2" fill="#97a9dd" stroke="none" stroke-width="0"/>
<text x="205.00" y="398.00" class="value" text-anchor="middle" fill="#0f172a">42</text>
<text x="205.00" y="412.00" class="axis" text-anchor="middle" fill="#0f172a">0.0</text>
<rect x="230.00" y="375.00" width="48.00" height="48.00" rx="2" fill="#8398d6" stroke="none" stroke-width="0"/>
<text x="255.00" y="398.00" class="value" text-anchor="middle" fill="#0f172a">43</text>
<text x="255.00" y="412.00" class="axis" text-anchor="middle" fill="#0f172a">0.0</text>
<rect x="280.00" y="375.00" width="48.00" height="48.00" rx="2" fill="#7b91d2" stroke="none" stroke-width="0"/>
<text x="305.00" y="398.00" class="value" text-anchor="middle" fill="#0f172a">44</text>
<text x="305.00" y="412.00" class="axis" text-anchor="middle" fill="#0f172a">0.0</text>
<rect x="330.00" y="375.00" width="48.00" height="48.00" rx="2" fill="#637cca" stroke="none" stroke-width="0"/>
<text x="355.00" y="398.00" class="value" text-anchor="middle" fill="white">45</text>
<text x="355.00" y="412.00" class="axis" text-anchor="middle" fill="white">0.0</text>
<rect x="380.00" y="375.00" width="48.00" height="48.00" rx="2" fill="#1e40af" stroke="none" stroke-width="0"/>
<text x="405.00" y="398.00" class="value" text-anchor="middle" fill="white">46</text>
<text x="405.00" y="412.00" class="axis" text-anchor="middle" fill="white">0.0</text>
<rect x="430.00" y="375.00" width="48.00" height="48.00" rx="2" fill="#97a9dd" stroke="none" stroke-width="0"/>
<text x="455.00" y="398.00" class="value" text-anchor="middle" fill="#0f172a">47</text>
<text x="455.00" y="412.00" class="axis" text-anchor="middle" fill="#0f172a">0.0</text>
<rect x="80.00" y="425.00" width="48.00" height="48.00" rx="2" fill="#7b91d2" stroke="none" stroke-width="0"/>
<text x="105.00" y="448.00" class="value" text-anchor="middle" fill="#0f172a">48</text>
<text x="105.00" y="462.00" class="axis" text-anchor="middle" fill="#0f172a">0.0</text>
<rect x="130.00" y="425.00" width="48.00" height="48.00" rx="2" fill="#8398d6" stroke="none" stroke-width="0"/>
<text x="155.00" y="448.00" class="value" text-anchor="middle" fill="#0f172a">49</text>
<text x="155.00" y="462.00" class="axis" text-anchor="middle" fill="#0f172a">0.0</text>
<rect x="180.00" y="425.00" width="48.00" height="48.00" rx="2" fill="#97a9dd" stroke="none" stroke-width="0"/>
<text x="205.00" y="448.00" class="value" text-anchor="middle" fill="#0f172a">50</text>
<text x="205.00" y="462.00" class="axis" text-anchor="middle" fill="#0f172a">0.0</text>
<rect x="230.00" y="425.00" width="48.00" height="48.00" rx="2" fill="#1e40af" stroke="none" stroke-width="0"/>
<text x="255.00" y="448.00" class="value" text-anchor="middle" fill="white">51</text>
<text x="255.00" y="462.00" class="axis" text-anchor="middle" fill="white">0.0</text>
<rect x="280.00" y="425.00" width="48.00" height="48.00" rx="2" fill="#637cca" stroke="none" stroke-width="0"/>
<text x="305.00" y="448.00" class="value" text-anchor="middle" fill="white">52</text>
<text x="305.00" y="462.00" class="axis" text-anchor="middle" fill="white">0.0</text>
<rect x="330.00" y="425.00" width="48.00" height="48.00" rx="2" fill="#7b91d2" stroke="none" stroke-width="0"/>
<text x="355.00" y="448.00" class="value" text-anchor="middle" fill="#0f172a">53</text>
<text x="355.00" y="462.00" class="axis" text-anchor="middle" fill="#0f172a">0.0</text>
<rect x="380.00" y="425.00" width="48.00" height="48.00" rx="2" fill="#8398d6" stroke="none" stroke-width="0"/>
<text x="405.00" y="448.00" class="value" text-anchor="middle" fill="#0f172a">54</text>
<text x="405.00" y="462.00" class="axis" text-anchor="middle" fill="#0f172a">0.0</text>
<rect x="430.00" y="425.00" width="48.00" height="48.00" rx="2" fill="#97a9dd" stroke="none" stroke-width="0"/>
<text x="455.00" y="448.00" class="value" text-anchor="middle" fill="#0f172a">55</text>
<text x="455.00" y="462.00" class="axis" text-anchor="middle" fill="#0f172a">0.0</text>
<rect x="80.00" y="475.00" width="48.00" height="48.00" rx="2" fill="#eff6ff" stroke="none" stroke-width="0"/>
<text x="105.00" y="498.00" class="value" text-anchor="middle" fill="#0f172a">56</text>
<text x="105.00" y="512.00" class="axis" text-anchor="middle" fill="#0f172a">0.0</text>
<rect x="130.00" y="475.00" width="48.00" height="48.00" rx="2" fill="#eff6ff" stroke="none" stroke-width="0"/>
<text x="155.00" y="498.00" class="value" text-anchor="middle" fill="#0f172a">57</text>
<text x="155.00" y="512.00" class="axis" text-anchor="middle" fill="#0f172a">0.0</text>
<rect x="180.00" y="475.00" width="48.00" height="48.00" rx="2" fill="#eff6ff" stroke="none" stroke-width="0"/>
<text x="205.00" y="498.00" class="value" text-anchor="middle" fill="#0f172a">58</text>
<text x="205.00" y="512.00" class="axis" text-anchor="middle" fill="#0f172a">0.0</text>
<rect x="230.00" y="475.00" width="48.00" height="48.00" rx="2" fill="#eff6ff" stroke="none" stroke-width="0"/>
<text x="255.00" y="498.00" class="value" text-anchor="middle" fill="#0f172a">59</text>
<text x="255.00" y="512.00" class="axis" text-anchor="middle" fill="#0f172a">0.0</text>
<rect x="280.00" y="475.00" width="48.00" height="48.00" rx="2" fill="#8398d6" stroke="none" stroke-width="0"/>
<text x="305.00" y="498.00" class="value" text-anchor="middle" fill="#0f172a">60</text>
<text x="305.00" y="512.00" class="axis" text-anchor="middle" fill="#0f172a">0.0</text>
<rect x="330.00" y="475.00" width="48.00" height="48.00" rx="2" fill="#7b91d2" stroke="none" stroke-width="0"/>
<text x="355.00" y="498.00" class="value" text-anchor="middle" fill="#0f172a">61</text>
<text x="355.00" y="512.00" class="axis" text-anchor="middle" fill="#0f172a">0.0</text>
<rect x="380.00" y="475.00" width="48.00" height="48.00" rx="2" fill="#637cca" stroke="none" stroke-width="0"/>
<text x="405.00" y="498.00" class="value" text-anchor="middle" fill="white">62</text>
<text x="405.00" y="512.00" class="axis" text-anchor="middle" fill="white">0.0</text>
<rect x="430.00" y="475.00" width="48.00" height="48.00" rx="2" fill="#6a83cc" stroke="none" stroke-width="0"/>
<text x="455.00" y="498.00" class="value" text-anchor="middle" fill="white">63</text>
<text x="455.00" y="512.00" class="axis" text-anchor="middle" fill="white">0.0</text>
<text x="280.00" y="547.00" class="axis" text-anchor="middle">tile ID; cell value in million word-hops</text>
<text x="640.00" y="107.00" class="label" text-anchor="start">Router stall events per coordinate</text>
<rect x="640.00" y="125.00" width="48.00" height="48.00" rx="2" fill="#eff6ff" stroke="none" stroke-width="0"/>
<text x="665.00" y="148.00" class="value" text-anchor="middle" fill="#0f172a">0</text>
<text x="665.00" y="162.00" class="axis" text-anchor="middle" fill="#0f172a">0.0</text>
<rect x="690.00" y="125.00" width="48.00" height="48.00" rx="2" fill="#e7effc" stroke="none" stroke-width="0"/>
<text x="715.00" y="148.00" class="value" text-anchor="middle" fill="#0f172a">1</text>
<text x="715.00" y="162.00" class="axis" text-anchor="middle" fill="#0f172a">0.0</text>
<rect x="740.00" y="125.00" width="48.00" height="48.00" rx="2" fill="#1e40af" stroke="none" stroke-width="0"/>
<text x="765.00" y="148.00" class="value" text-anchor="middle" fill="white">2</text>
<text x="765.00" y="162.00" class="axis" text-anchor="middle" fill="white">12.3</text>
<rect x="790.00" y="125.00" width="48.00" height="48.00" rx="2" fill="#eff6ff" stroke="none" stroke-width="0"/>
<text x="815.00" y="148.00" class="value" text-anchor="middle" fill="#0f172a">3</text>
<text x="815.00" y="162.00" class="axis" text-anchor="middle" fill="#0f172a">0.0</text>
<rect x="840.00" y="125.00" width="48.00" height="48.00" rx="2" fill="#e5edfb" stroke="none" stroke-width="0"/>
<text x="865.00" y="148.00" class="value" text-anchor="middle" fill="#0f172a">4</text>
<text x="865.00" y="162.00" class="axis" text-anchor="middle" fill="#0f172a">0.0</text>
<rect x="890.00" y="125.00" width="48.00" height="48.00" rx="2" fill="#eff6ff" stroke="none" stroke-width="0"/>
<text x="915.00" y="148.00" class="value" text-anchor="middle" fill="#0f172a">5</text>
<text x="915.00" y="162.00" class="axis" text-anchor="middle" fill="#0f172a">0.0</text>
<rect x="940.00" y="125.00" width="48.00" height="48.00" rx="2" fill="#e7effc" stroke="none" stroke-width="0"/>
<text x="965.00" y="148.00" class="value" text-anchor="middle" fill="#0f172a">6</text>
<text x="965.00" y="162.00" class="axis" text-anchor="middle" fill="#0f172a">0.0</text>
<rect x="990.00" y="125.00" width="48.00" height="48.00" rx="2" fill="#eff6ff" stroke="none" stroke-width="0"/>
<text x="1015.00" y="148.00" class="value" text-anchor="middle" fill="#0f172a">7</text>
<text x="1015.00" y="162.00" class="axis" text-anchor="middle" fill="#0f172a">0.0</text>
<rect x="640.00" y="175.00" width="48.00" height="48.00" rx="2" fill="#eff6ff" stroke="none" stroke-width="0"/>
<text x="665.00" y="198.00" class="value" text-anchor="middle" fill="#0f172a">8</text>
<text x="665.00" y="212.00" class="axis" text-anchor="middle" fill="#0f172a">0.0</text>
<rect x="690.00" y="175.00" width="48.00" height="48.00" rx="2" fill="#e5edfb" stroke="none" stroke-width="0"/>
<text x="715.00" y="198.00" class="value" text-anchor="middle" fill="#0f172a">9</text>
<text x="715.00" y="212.00" class="axis" text-anchor="middle" fill="#0f172a">0.0</text>
<rect x="740.00" y="175.00" width="48.00" height="48.00" rx="2" fill="#eff6ff" stroke="none" stroke-width="0"/>
<text x="765.00" y="198.00" class="value" text-anchor="middle" fill="#0f172a">10</text>
<text x="765.00" y="212.00" class="axis" text-anchor="middle" fill="#0f172a">0.0</text>
<rect x="790.00" y="175.00" width="48.00" height="48.00" rx="2" fill="#1e40af" stroke="none" stroke-width="0"/>
<text x="815.00" y="198.00" class="value" text-anchor="middle" fill="white">11</text>
<text x="815.00" y="212.00" class="axis" text-anchor="middle" fill="white">12.3</text>
<rect x="840.00" y="175.00" width="48.00" height="48.00" rx="2" fill="#e7effc" stroke="none" stroke-width="0"/>
<text x="865.00" y="198.00" class="value" text-anchor="middle" fill="#0f172a">12</text>
<text x="865.00" y="212.00" class="axis" text-anchor="middle" fill="#0f172a">0.0</text>
<rect x="890.00" y="175.00" width="48.00" height="48.00" rx="2" fill="#eff6ff" stroke="none" stroke-width="0"/>
<text x="915.00" y="198.00" class="value" text-anchor="middle" fill="#0f172a">13</text>
<text x="915.00" y="212.00" class="axis" text-anchor="middle" fill="#0f172a">0.0</text>
<rect x="940.00" y="175.00" width="48.00" height="48.00" rx="2" fill="#e5edfb" stroke="none" stroke-width="0"/>
<text x="965.00" y="198.00" class="value" text-anchor="middle" fill="#0f172a">14</text>
<text x="965.00" y="212.00" class="axis" text-anchor="middle" fill="#0f172a">0.0</text>
<rect x="990.00" y="175.00" width="48.00" height="48.00" rx="2" fill="#eff6ff" stroke="none" stroke-width="0"/>
<text x="1015.00" y="198.00" class="value" text-anchor="middle" fill="#0f172a">15</text>
<text x="1015.00" y="212.00" class="axis" text-anchor="middle" fill="#0f172a">0.0</text>
<rect x="640.00" y="225.00" width="48.00" height="48.00" rx="2" fill="#e7effc" stroke="none" stroke-width="0"/>
<text x="665.00" y="248.00" class="value" text-anchor="middle" fill="#0f172a">16</text>
<text x="665.00" y="262.00" class="axis" text-anchor="middle" fill="#0f172a">0.0</text>
<rect x="690.00" y="225.00" width="48.00" height="48.00" rx="2" fill="#1e40af" stroke="none" stroke-width="0"/>
<text x="715.00" y="248.00" class="value" text-anchor="middle" fill="white">17</text>
<text x="715.00" y="262.00" class="axis" text-anchor="middle" fill="white">12.3</text>
<rect x="740.00" y="225.00" width="48.00" height="48.00" rx="2" fill="#eff6ff" stroke="none" stroke-width="0"/>
<text x="765.00" y="248.00" class="value" text-anchor="middle" fill="#0f172a">18</text>
<text x="765.00" y="262.00" class="axis" text-anchor="middle" fill="#0f172a">0.0</text>
<rect x="790.00" y="225.00" width="48.00" height="48.00" rx="2" fill="#e5edfb" stroke="none" stroke-width="0"/>
<text x="815.00" y="248.00" class="value" text-anchor="middle" fill="#0f172a">19</text>
<text x="815.00" y="262.00" class="axis" text-anchor="middle" fill="#0f172a">0.0</text>
<rect x="840.00" y="225.00" width="48.00" height="48.00" rx="2" fill="#eff6ff" stroke="none" stroke-width="0"/>
<text x="865.00" y="248.00" class="value" text-anchor="middle" fill="#0f172a">20</text>
<text x="865.00" y="262.00" class="axis" text-anchor="middle" fill="#0f172a">0.0</text>
<rect x="890.00" y="225.00" width="48.00" height="48.00" rx="2" fill="#e7effc" stroke="none" stroke-width="0"/>
<text x="915.00" y="248.00" class="value" text-anchor="middle" fill="#0f172a">21</text>
<text x="915.00" y="262.00" class="axis" text-anchor="middle" fill="#0f172a">0.0</text>
<rect x="940.00" y="225.00" width="48.00" height="48.00" rx="2" fill="#1e40af" stroke="none" stroke-width="0"/>
<text x="965.00" y="248.00" class="value" text-anchor="middle" fill="white">22</text>
<text x="965.00" y="262.00" class="axis" text-anchor="middle" fill="white">12.3</text>
<rect x="990.00" y="225.00" width="48.00" height="48.00" rx="2" fill="#eff6ff" stroke="none" stroke-width="0"/>
<text x="1015.00" y="248.00" class="value" text-anchor="middle" fill="#0f172a">23</text>
<text x="1015.00" y="262.00" class="axis" text-anchor="middle" fill="#0f172a">0.0</text>
<rect x="640.00" y="275.00" width="48.00" height="48.00" rx="2" fill="#eff6ff" stroke="none" stroke-width="0"/>
<text x="665.00" y="298.00" class="value" text-anchor="middle" fill="#0f172a">24</text>
<text x="665.00" y="312.00" class="axis" text-anchor="middle" fill="#0f172a">0.0</text>
<rect x="690.00" y="275.00" width="48.00" height="48.00" rx="2" fill="#eff6ff" stroke="none" stroke-width="0"/>
<text x="715.00" y="298.00" class="value" text-anchor="middle" fill="#0f172a">25</text>
<text x="715.00" y="312.00" class="axis" text-anchor="middle" fill="#0f172a">0.0</text>
<rect x="740.00" y="275.00" width="48.00" height="48.00" rx="2" fill="#e5edfb" stroke="none" stroke-width="0"/>
<text x="765.00" y="298.00" class="value" text-anchor="middle" fill="#0f172a">26</text>
<text x="765.00" y="312.00" class="axis" text-anchor="middle" fill="#0f172a">0.0</text>
<rect x="790.00" y="275.00" width="48.00" height="48.00" rx="2" fill="#eff6ff" stroke="none" stroke-width="0"/>
<text x="815.00" y="298.00" class="value" text-anchor="middle" fill="#0f172a">27</text>
<text x="815.00" y="312.00" class="axis" text-anchor="middle" fill="#0f172a">0.0</text>
<rect x="840.00" y="275.00" width="48.00" height="48.00" rx="2" fill="#1e40af" stroke="none" stroke-width="0"/>
<text x="865.00" y="298.00" class="value" text-anchor="middle" fill="white">28</text>
<text x="865.00" y="312.00" class="axis" text-anchor="middle" fill="white">12.3</text>
<rect x="890.00" y="275.00" width="48.00" height="48.00" rx="2" fill="#e7effc" stroke="none" stroke-width="0"/>
<text x="915.00" y="298.00" class="value" text-anchor="middle" fill="#0f172a">29</text>
<text x="915.00" y="312.00" class="axis" text-anchor="middle" fill="#0f172a">0.0</text>
<rect x="940.00" y="275.00" width="48.00" height="48.00" rx="2" fill="#eff6ff" stroke="none" stroke-width="0"/>
<text x="965.00" y="298.00" class="value" text-anchor="middle" fill="#0f172a">30</text>
<text x="965.00" y="312.00" class="axis" text-anchor="middle" fill="#0f172a">0.0</text>
<rect x="990.00" y="275.00" width="48.00" height="48.00" rx="2" fill="#e5edfb" stroke="none" stroke-width="0"/>
<text x="1015.00" y="298.00" class="value" text-anchor="middle" fill="#0f172a">31</text>
<text x="1015.00" y="312.00" class="axis" text-anchor="middle" fill="#0f172a">0.0</text>
<rect x="640.00" y="325.00" width="48.00" height="48.00" rx="2" fill="#1e40af" stroke="none" stroke-width="0"/>
<text x="665.00" y="348.00" class="value" text-anchor="middle" fill="white">32</text>
<text x="665.00" y="362.00" class="axis" text-anchor="middle" fill="white">12.3</text>
<rect x="690.00" y="325.00" width="48.00" height="48.00" rx="2" fill="#eff6ff" stroke="none" stroke-width="0"/>
<text x="715.00" y="348.00" class="value" text-anchor="middle" fill="#0f172a">33</text>
<text x="715.00" y="362.00" class="axis" text-anchor="middle" fill="#0f172a">0.0</text>
<rect x="740.00" y="325.00" width="48.00" height="48.00" rx="2" fill="#e5edfb" stroke="none" stroke-width="0"/>
<text x="765.00" y="348.00" class="value" text-anchor="middle" fill="#0f172a">34</text>
<text x="765.00" y="362.00" class="axis" text-anchor="middle" fill="#0f172a">0.0</text>
<rect x="790.00" y="325.00" width="48.00" height="48.00" rx="2" fill="#eff6ff" stroke="none" stroke-width="0"/>
<text x="815.00" y="348.00" class="value" text-anchor="middle" fill="#0f172a">35</text>
<text x="815.00" y="362.00" class="axis" text-anchor="middle" fill="#0f172a">0.0</text>
<rect x="840.00" y="325.00" width="48.00" height="48.00" rx="2" fill="#e7effc" stroke="none" stroke-width="0"/>
<text x="865.00" y="348.00" class="value" text-anchor="middle" fill="#0f172a">36</text>
<text x="865.00" y="362.00" class="axis" text-anchor="middle" fill="#0f172a">0.0</text>
<rect x="890.00" y="325.00" width="48.00" height="48.00" rx="2" fill="#1e40af" stroke="none" stroke-width="0"/>
<text x="915.00" y="348.00" class="value" text-anchor="middle" fill="white">37</text>
<text x="915.00" y="362.00" class="axis" text-anchor="middle" fill="white">12.3</text>
<rect x="940.00" y="325.00" width="48.00" height="48.00" rx="2" fill="#eff6ff" stroke="none" stroke-width="0"/>
<text x="965.00" y="348.00" class="value" text-anchor="middle" fill="#0f172a">38</text>
<text x="965.00" y="362.00" class="axis" text-anchor="middle" fill="#0f172a">0.0</text>
<rect x="990.00" y="325.00" width="48.00" height="48.00" rx="2" fill="#e5edfb" stroke="none" stroke-width="0"/>
<text x="1015.00" y="348.00" class="value" text-anchor="middle" fill="#0f172a">39</text>
<text x="1015.00" y="362.00" class="axis" text-anchor="middle" fill="#0f172a">0.0</text>
<rect x="640.00" y="375.00" width="48.00" height="48.00" rx="2" fill="#eff6ff" stroke="none" stroke-width="0"/>
<text x="665.00" y="398.00" class="value" text-anchor="middle" fill="#0f172a">40</text>
<text x="665.00" y="412.00" class="axis" text-anchor="middle" fill="#0f172a">0.0</text>
<rect x="690.00" y="375.00" width="48.00" height="48.00" rx="2" fill="#e7effc" stroke="none" stroke-width="0"/>
<text x="715.00" y="398.00" class="value" text-anchor="middle" fill="#0f172a">41</text>
<text x="715.00" y="412.00" class="axis" text-anchor="middle" fill="#0f172a">0.0</text>
<rect x="740.00" y="375.00" width="48.00" height="48.00" rx="2" fill="#eff6ff" stroke="none" stroke-width="0"/>
<text x="765.00" y="398.00" class="value" text-anchor="middle" fill="#0f172a">42</text>
<text x="765.00" y="412.00" class="axis" text-anchor="middle" fill="#0f172a">0.0</text>
<rect x="790.00" y="375.00" width="48.00" height="48.00" rx="2" fill="#e5edfb" stroke="none" stroke-width="0"/>
<text x="815.00" y="398.00" class="value" text-anchor="middle" fill="#0f172a">43</text>
<text x="815.00" y="412.00" class="axis" text-anchor="middle" fill="#0f172a">0.0</text>
<rect x="840.00" y="375.00" width="48.00" height="48.00" rx="2" fill="#eff6ff" stroke="none" stroke-width="0"/>
<text x="865.00" y="398.00" class="value" text-anchor="middle" fill="#0f172a">44</text>
<text x="865.00" y="412.00" class="axis" text-anchor="middle" fill="#0f172a">0.0</text>
<rect x="890.00" y="375.00" width="48.00" height="48.00" rx="2" fill="#1e40af" stroke="none" stroke-width="0"/>
<text x="915.00" y="398.00" class="value" text-anchor="middle" fill="white">45</text>
<text x="915.00" y="412.00" class="axis" text-anchor="middle" fill="white">12.3</text>
<rect x="940.00" y="375.00" width="48.00" height="48.00" rx="2" fill="#e7effc" stroke="none" stroke-width="0"/>
<text x="965.00" y="398.00" class="value" text-anchor="middle" fill="#0f172a">46</text>
<text x="965.00" y="412.00" class="axis" text-anchor="middle" fill="#0f172a">0.0</text>
<rect x="990.00" y="375.00" width="48.00" height="48.00" rx="2" fill="#eff6ff" stroke="none" stroke-width="0"/>
<text x="1015.00" y="398.00" class="value" text-anchor="middle" fill="#0f172a">47</text>
<text x="1015.00" y="412.00" class="axis" text-anchor="middle" fill="#0f172a">0.0</text>
<rect x="640.00" y="425.00" width="48.00" height="48.00" rx="2" fill="#eff6ff" stroke="none" stroke-width="0"/>
<text x="665.00" y="448.00" class="value" text-anchor="middle" fill="#0f172a">48</text>
<text x="665.00" y="462.00" class="axis" text-anchor="middle" fill="#0f172a">0.0</text>
<rect x="690.00" y="425.00" width="48.00" height="48.00" rx="2" fill="#e5edfb" stroke="none" stroke-width="0"/>
<text x="715.00" y="448.00" class="value" text-anchor="middle" fill="#0f172a">49</text>
<text x="715.00" y="462.00" class="axis" text-anchor="middle" fill="#0f172a">0.0</text>
<rect x="740.00" y="425.00" width="48.00" height="48.00" rx="2" fill="#eff6ff" stroke="none" stroke-width="0"/>
<text x="765.00" y="448.00" class="value" text-anchor="middle" fill="#0f172a">50</text>
<text x="765.00" y="462.00" class="axis" text-anchor="middle" fill="#0f172a">0.0</text>
<rect x="790.00" y="425.00" width="48.00" height="48.00" rx="2" fill="#e7effc" stroke="none" stroke-width="0"/>
<text x="815.00" y="448.00" class="value" text-anchor="middle" fill="#0f172a">51</text>
<text x="815.00" y="462.00" class="axis" text-anchor="middle" fill="#0f172a">0.0</text>
<rect x="840.00" y="425.00" width="48.00" height="48.00" rx="2" fill="#1e40af" stroke="none" stroke-width="0"/>
<text x="865.00" y="448.00" class="value" text-anchor="middle" fill="white">52</text>
<text x="865.00" y="462.00" class="axis" text-anchor="middle" fill="white">12.3</text>
<rect x="890.00" y="425.00" width="48.00" height="48.00" rx="2" fill="#eff6ff" stroke="none" stroke-width="0"/>
<text x="915.00" y="448.00" class="value" text-anchor="middle" fill="#0f172a">53</text>
<text x="915.00" y="462.00" class="axis" text-anchor="middle" fill="#0f172a">0.0</text>
<rect x="940.00" y="425.00" width="48.00" height="48.00" rx="2" fill="#e5edfb" stroke="none" stroke-width="0"/>
<text x="965.00" y="448.00" class="value" text-anchor="middle" fill="#0f172a">54</text>
<text x="965.00" y="462.00" class="axis" text-anchor="middle" fill="#0f172a">0.0</text>
<rect x="990.00" y="425.00" width="48.00" height="48.00" rx="2" fill="#eff6ff" stroke="none" stroke-width="0"/>
<text x="1015.00" y="448.00" class="value" text-anchor="middle" fill="#0f172a">55</text>
<text x="1015.00" y="462.00" class="axis" text-anchor="middle" fill="#0f172a">0.0</text>
<rect x="640.00" y="475.00" width="48.00" height="48.00" rx="2" fill="#eff6ff" stroke="none" stroke-width="0"/>
<text x="665.00" y="498.00" class="value" text-anchor="middle" fill="#0f172a">56</text>
<text x="665.00" y="512.00" class="axis" text-anchor="middle" fill="#0f172a">0.0</text>
<rect x="690.00" y="475.00" width="48.00" height="48.00" rx="2" fill="#eff6ff" stroke="none" stroke-width="0"/>
<text x="715.00" y="498.00" class="value" text-anchor="middle" fill="#0f172a">57</text>
<text x="715.00" y="512.00" class="axis" text-anchor="middle" fill="#0f172a">0.0</text>
<rect x="740.00" y="475.00" width="48.00" height="48.00" rx="2" fill="#eff6ff" stroke="none" stroke-width="0"/>
<text x="765.00" y="498.00" class="value" text-anchor="middle" fill="#0f172a">58</text>
<text x="765.00" y="512.00" class="axis" text-anchor="middle" fill="#0f172a">0.0</text>
<rect x="790.00" y="475.00" width="48.00" height="48.00" rx="2" fill="#eff6ff" stroke="none" stroke-width="0"/>
<text x="815.00" y="498.00" class="value" text-anchor="middle" fill="#0f172a">59</text>
<text x="815.00" y="512.00" class="axis" text-anchor="middle" fill="#0f172a">0.0</text>
<rect x="840.00" y="475.00" width="48.00" height="48.00" rx="2" fill="#e5edfb" stroke="none" stroke-width="0"/>
<text x="865.00" y="498.00" class="value" text-anchor="middle" fill="#0f172a">60</text>
<text x="865.00" y="512.00" class="axis" text-anchor="middle" fill="#0f172a">0.0</text>
<rect x="890.00" y="475.00" width="48.00" height="48.00" rx="2" fill="#eff6ff" stroke="none" stroke-width="0"/>
<text x="915.00" y="498.00" class="value" text-anchor="middle" fill="#0f172a">61</text>
<text x="915.00" y="512.00" class="axis" text-anchor="middle" fill="#0f172a">0.0</text>
<rect x="940.00" y="475.00" width="48.00" height="48.00" rx="2" fill="#1e40af" stroke="none" stroke-width="0"/>
<text x="965.00" y="498.00" class="value" text-anchor="middle" fill="white">62</text>
<text x="965.00" y="512.00" class="axis" text-anchor="middle" fill="white">12.3</text>
<rect x="990.00" y="475.00" width="48.00" height="48.00" rx="2" fill="#e7effc" stroke="none" stroke-width="0"/>
<text x="1015.00" y="498.00" class="value" text-anchor="middle" fill="#0f172a">63</text>
<text x="1015.00" y="512.00" class="axis" text-anchor="middle" fill="#0f172a">0.0</text>
<text x="840.00" y="547.00" class="axis" text-anchor="middle">tile ID; cell value in million stalls</text>
<text x="560.00" y="600.00" class="subtitle" text-anchor="middle">Inactive tiles remain visible because they still occupy physical mesh coordinates.</text>
</svg>
